<?xml version="1.0" encoding="UTF-8"?><svg id="Layer_2" xmlns="http://www.w3.org/2000/svg" xmlns:xlink="http://www.w3.org/1999/xlink" viewBox="0 0 500.97 86.53"><defs><style>.cls-1{fill:#37aa52;}.cls-2{fill:url(#linear-gradient-2);}.cls-3{fill:url(#linear-gradient);}.cls-4{fill:#4878ff;}.cls-5{fill:#ffda22;}.cls-6{fill:#fff;}</style><linearGradient id="linear-gradient" x1="82.19" y1="69.86" x2="82.23" y2="69.86" gradientTransform="translate(0 88.01) scale(1 -1)" gradientUnits="userSpaceOnUse"><stop offset="0" stop-color="#34a853"/><stop offset="1" stop-color="#4285f4"/></linearGradient><linearGradient id="linear-gradient-2" x1="82.23" y1="69.46" x2="82.25" y2="69.46" gradientTransform="translate(0 88.01) scale(1 -1)" gradientUnits="userSpaceOnUse"><stop offset="0" stop-color="#34a853"/><stop offset="1" stop-color="#4285f4"/></linearGradient></defs><path class="cls-3" d="M82.19,17.95c.02.13.03.26.04.39-.01-.04-.01-.07-.02-.11,0-.09-.01-.19-.02-.28Z"/><path class="cls-5" d="M82.29,19.61v51.57c0,8.48-6.88,15.35-15.36,15.35s-15.36-6.87-15.36-15.35v-14.5l26.22-26.22c.42-.42.82-.86,1.18-1.33.12-.14.23-.29.34-.45.19-.24.35-.48.52-.73.1-.18.22-.36.33-.54.12-.22.25-.44.37-.66.09-.19.19-.38.27-.56.05-.1.1-.19.14-.29.08-.17.15-.34.22-.52.09-.22.18-.46.26-.69.08-.24.16-.47.23-.71s.13-.48.19-.72c.06-.23.11-.48.16-.72s.09-.49.12-.73c.03-.18.05-.37.07-.55,0-.09.02-.18.02-.27.02-.09.02-.19.03-.28s0-.18,0-.27c.02-.28.03-.55.03-.83s0-.56-.03-.84c.02.28.04.55.04.84h0Z"/><path class="cls-2" d="M82.24,18.5v.24c0-.13,0-.26-.02-.4v.16h.02Z"/><path class="cls-4" d="M82.25,18.77v-.43s-.01-.07-.02-.11c0-.09-.01-.19-.02-.28-.01-.14-.03-.28-.05-.42l-.02-.13c-.03-.24-.07-.49-.12-.73s-.1-.48-.16-.72-.12-.48-.19-.71c-.07-.24-.15-.48-.23-.72-.08-.23-.17-.46-.26-.69-.07-.17-.14-.35-.22-.52-.04-.09-.09-.19-.14-.28l-.27-.57c-.12-.22-.25-.44-.37-.66-.11-.18-.23-.36-.33-.53l-.52-.74c-.11-.16-.22-.31-.34-.45l-1.18-1.33c-1.28-1.28-2.73-2.29-4.27-3.01-.2-.1-.4-.19-.61-.27h0c-.15-.08-.31-.14-.46-.2-.12-.04-.23-.09-.34-.13-.12-.04-.24-.08-.37-.12-.22-.08-.43-.14-.65-.2-.14-.04-.28-.08-.42-.11-.56-.14-1.13-.25-1.71-.33-.18-.02-.36-.04-.55-.06-.24-.03-.49-.04-.73-.05-.25-.01-.5-.02-.74-.02H15.36c-8.48,0-15.36,6.87-15.36,15.36s6.88,15.35,15.36,15.35h51.57c4.24,0,8.08-1.72,10.86-4.5.42-.42.82-.86,1.18-1.33.12-.14.23-.29.34-.45.19-.24.35-.48.52-.73.1-.18.22-.36.33-.54.12-.22.25-.44.37-.66.09-.19.19-.38.27-.56.05-.1.1-.19.14-.29.08-.17.15-.34.22-.52.09-.22.18-.46.26-.69.08-.24.16-.47.23-.71s.13-.48.19-.72c.06-.23.11-.48.16-.72s.09-.49.12-.73c.03-.18.05-.37.07-.55,0-.09.02-.18.02-.27.02-.09.02-.19.03-.28s0-.18,0-.27c.02-.28.03-.55.03-.83s0-.56-.03-.84h0ZM60.95,5.47c-.21.08-.41.17-.61.27.2-.1.4-.19.61-.28h0Z"/><path class="cls-1" d="M77.79,30.46l-26.22,26.22-12.24,12.25c-6,5.99-15.72,5.99-21.72,0-5.99-6.01-5.99-15.72,0-21.72l12.25-12.25h37.07c4.24,0,8.08-1.72,10.86-4.5Z"/><rect class="cls-6" x="172.7" y="30.19" width="12.85" height="49.82"/><path class="cls-6" d="M226.84,54.15c-1.76-1.16-3.5-2.06-5.23-2.69-1.73-.63-3.65-1.18-5.78-1.64-6.04-1.53-9.07-3.35-9.07-5.48,0-1.2.55-2.18,1.64-2.94,1.1-.76,2.47-1.15,4.13-1.15,3.72,0,6.38,1.69,7.97,5.08l10.96-5.98c-1.93-3.39-4.55-5.99-7.87-7.82-3.32-1.83-7.01-2.74-11.06-2.74-5.38,0-9.9,1.43-13.55,4.28-3.59,2.79-5.38,6.64-5.38,11.56,0,2.46.48,4.6,1.44,6.43s2.37,3.32,4.23,4.48,3.59,2.04,5.18,2.64,3.52,1.2,5.78,1.79c6.04,1.53,9.07,3.35,9.07,5.48,0,2.86-2.29,4.28-6.87,4.28-4.98,0-8.24-2.16-9.76-6.48l-11.16,6.28c3.72,7.9,10.69,11.86,20.92,11.86,5.64,0,10.39-1.36,14.25-4.08,3.85-2.79,5.78-6.74,5.78-11.86,0-2.52-.5-4.75-1.49-6.67-1-1.93-2.38-3.47-4.13-4.63h0Z"/><path class="cls-6" d="M245.12,8.38c-2.13,0-3.97.8-5.53,2.39s-2.34,3.45-2.34,5.58.78,3.97,2.34,5.53c1.56,1.56,3.4,2.34,5.53,2.34s4.07-.78,5.63-2.34,2.34-3.4,2.34-5.53-.78-3.99-2.34-5.58-3.44-2.39-5.63-2.39Z"/><rect class="cls-6" x="238.75" y="30.19" width="12.85" height="49.81"/><path class="cls-6" d="M301.91,44.34c-.93-.66-2.39-1.36-4.38-2.09-2.13-.86-3.62-1.43-4.48-1.69l-4.78-1.59c-5.05-1.53-8.57-2.99-10.56-4.38-1.79-1.39-2.69-3.19-2.69-5.38,0-2.06.83-3.74,2.49-5.03,1.66-1.29,3.88-1.94,6.67-1.94,6.11,0,10.56,2.99,13.35,8.97l11.56-6.67c-2.39-4.98-5.75-8.83-10.06-11.56-4.32-2.72-9.27-4.08-14.84-4.08-6.38,0-11.79,1.89-16.24,5.68-4.45,3.65-6.67,8.67-6.67,15.04s2.19,11.09,6.58,14.35c3.52,2.46,8.33,4.62,14.45,6.48,5.65,1.59,9.56,3.09,11.76,4.48,2.19,1.33,3.29,3.22,3.29,5.68,0,2.26-.93,4.05-2.79,5.38-1.86,1.33-4.65,1.99-8.37,1.99-7.97,0-13.32-3.55-16.04-10.66l-11.76,6.87c1.99,5.38,5.35,9.6,10.06,12.65,4.71,3.06,10.49,4.58,17.33,4.58,7.44,0,13.51-1.89,18.23-5.68s7.07-8.9,7.07-15.34c0-3.79-.86-7.07-2.59-9.86-1.13-2.12-3.32-4.18-6.58-6.18v-.02Z"/><path class="cls-6" d="M349.38,66.91c-2.03,1.16-4.33,1.74-6.92,1.74-3.85,0-7.04-1.26-9.56-3.79-2.53-2.66-3.79-5.91-3.79-9.76s1.26-7.26,3.79-9.81c2.52-2.56,5.71-3.84,9.56-3.84,2.52,0,4.8.6,6.82,1.79,2.03,1.2,3.54,2.82,4.53,4.88l11.06-6.48c-2.06-3.92-5.08-7.04-9.07-9.36-3.98-2.32-8.4-3.49-13.25-3.49-7.51,0-13.78,2.53-18.83,7.57-4.98,5.05-7.47,11.29-7.47,18.73s2.49,13.68,7.47,18.73c5.05,5.05,11.32,7.57,18.83,7.57,4.78,0,9.18-1.16,13.2-3.49,4.02-2.32,7.12-5.48,9.32-9.46l-11.16-6.38c-1,2.06-2.51,3.67-4.53,4.83v.02Z"/><path class="cls-6" d="M408.83,36.07c-3.85-4.85-9.26-7.27-16.24-7.27s-12.35,2.56-17.14,7.67c-4.72,5.12-7.07,11.32-7.07,18.63s2.36,13.62,7.07,18.73c4.78,5.05,10.49,7.57,17.14,7.57s12.39-2.42,16.24-7.27v5.88h12.85V30.19h-12.85v5.88h0ZM404.85,65.26c-2.59,2.59-5.88,3.89-9.86,3.89s-7.27-1.29-9.86-3.89c-2.59-2.66-3.88-6.04-3.88-10.16s1.29-7.47,3.88-10.06c2.59-2.66,5.88-3.99,9.86-3.99s7.27,1.33,9.86,3.99c2.66,2.59,3.98,5.94,3.98,10.06s-1.33,7.51-3.98,10.16Z"/><rect class="cls-6" x="429.75" y="10.27" width="12.85" height="69.74"/><path class="cls-6" d="M500.96,55.1c0-7.44-2.39-13.68-7.17-18.73-4.65-5.05-10.66-7.57-18.03-7.57-7.77,0-14.08,2.53-18.93,7.57-4.92,5.05-7.37,11.29-7.37,18.73s2.49,13.85,7.47,18.83,11.59,7.47,19.83,7.47c9.56,0,16.8-3.55,21.72-10.66l-10.36-5.98c-2.53,3.32-6.24,4.98-11.16,4.98-7.71,0-12.39-3.12-14.05-9.36h37.56c.33-2.13.5-3.89.5-5.28h-.01ZM462.7,50.42c.73-3.19,2.22-5.66,4.48-7.42s5.11-2.64,8.57-2.64c3.05,0,5.69.86,7.92,2.59,2.22,1.73,3.7,4.22,4.43,7.47h-25.4Z"/><path class="cls-6" d="M164.3,17.05c-.36-3.27-1.58-6.47-3.62-9.28-3.81-5.24-9.85-8.13-16.11-7.74-4.14.26-8.27,2.02-11.34,4.83l-.27.27c-4.75,4.87-6.46,11.58-4.57,17.95,1.98,6.68,7.47,11.65,14.68,13.29.85.19,1.73.32,2.63.4l-8.56,27.09-17.05-53.6h-14.94l23.42,69.74h17.03l15.54-46.08c8.81-3.44,17.28-9.63,26.11-19.02l-9.85-9.27c-4.52,4.81-8.85,8.59-13.1,11.41h0ZM141.35,19.25c-.27-.93-.48-2.74,1.15-4.52.63-.53,1.72-1.12,2.92-1.19,2.33-.13,3.8,1.48,4.31,2.19,1.16,1.6,1.45,3.56.79,5.25l-.87,2.21c-1.38.23-2.59.23-3.59,0-2.41-.55-4.12-1.98-4.7-3.93h0Z"/></svg>